<svg width="27" height="27" viewBox="0 0 27 27" fill="none" xmlns="http://www.w3.org/2000/svg">
<path d="M13.2489 4.97381C14.733 6.04821 16.2421 7.33192 17.7044 8.79412C19.1666 10.2564 20.4504 11.7655 21.5248 13.2498M13.2489 4.97381C11.7648 6.04821 10.2557 7.33192 8.79346 8.79413C7.33122 10.2564 6.04749 11.7655 4.97308 13.2498M13.2489 4.97381C18.0088 1.52801 22.5118 0.235068 24.3877 2.11088C26.2634 3.98671 24.9705 8.48981 21.5248 13.2498M21.5248 13.2498C24.9705 18.0095 26.2633 22.5126 24.3876 24.3884C22.9968 25.7791 20.162 25.428 16.8489 23.7492M21.5248 13.2498C20.4504 14.7339 19.1666 16.243 17.7045 17.7051C16.2422 19.1674 14.733 20.4511 13.2489 21.5255M4.97308 13.2498C6.04746 14.7339 7.33116 16.243 8.79334 17.7051C10.2556 19.1674 11.7648 20.4511 13.2489 21.5255M4.97308 13.2498C1.52736 18.0095 0.234451 22.5126 2.11025 24.3884C3.98605 26.2642 8.48908 24.9712 13.2489 21.5255M4.97308 13.2498C1.52726 8.48981 0.234318 3.98669 2.11013 2.11087C3.50089 0.720108 6.33584 1.07122 9.64889 2.75013" stroke="#FFA500" stroke-width="2.5" stroke-linecap="round"/>
</svg>
